<mxfile host="app.diagrams.net" agent="Mozilla/5.0 (Windows NT 10.0; Win64; x64) AppleWebKit/537.36 (KHTML, like Gecko) Chrome/138.0.0.0 Safari/537.36" version="27.2.0">
  <diagram name="Use Case - Tạo/Gán Dự án Trong Nhóm" id="diagram-1">
    <mxGraphModel dx="1138" dy="408" grid="1" gridSize="10" guides="1" tooltips="1" connect="1" arrows="1" fold="1" page="1" pageScale="1" pageWidth="1169" pageHeight="827" math="0" shadow="0">
      <root>
        <mxCell id="0" />
        <mxCell id="1" parent="0" />
        
        <!-- ACTOR CHÍNH -->
        <mxCell id="2" value="Thành viên nhóm" style="shape=umlActor;verticalLabelPosition=bottom;verticalAlign=top;html=1;outlineConnect=0;" parent="1" vertex="1">
          <mxGeometry x="30" y="300" width="50" height="80" as="geometry" />
        </mxCell>
        
        <!-- ACTOR PHỤ -->
        <mxCell id="18" value="Quản trị viên" style="shape=umlActor;verticalLabelPosition=bottom;verticalAlign=top;html=1;outlineConnect=0;" parent="1" vertex="1">
          <mxGeometry x="30" y="430" width="50" height="80" as="geometry" />
        </mxCell>
        
        <!-- TIÊU ĐỀ HỆ THỐNG -->
        <mxCell id="23" value="Hệ thống Quản lý Dự án Nhóm UniPlan" style="text;html=1;strokeColor=none;fillColor=none;align=center;verticalAlign=middle;whiteSpace=wrap;rounded=0;fontSize=16;fontStyle=1;" parent="1" vertex="1">
          <mxGeometry x="410" y="70" width="350" height="30" as="geometry" />
        </mxCell>
        
        <!-- SYSTEM BOUNDARY - KHUNG HỆ THỐNG -->
        <mxCell id="3" value="" style="rounded=1;whiteSpace=wrap;html=1;strokeWidth=2;fillColor=none;dashed=0;strokeColor=#000000;fontStyle=1;fontSize=14;" parent="1" vertex="1">
          <mxGeometry x="120" y="110" width="850" height="520" as="geometry" />
        </mxCell>
        
        <!-- USE CASE CHÍNH - CỘT 1 -->
        <mxCell id="4" value="Tạo dự án mới trong nhóm" style="ellipse;whiteSpace=wrap;html=1;fillColor=#dae8fc;strokeColor=#6c8ebf;" parent="1" vertex="1">
          <mxGeometry x="180" y="200" width="130" height="70" as="geometry" />
        </mxCell>
        
        <mxCell id="5" value="Gán dự án có sẵn vào nhóm" style="ellipse;whiteSpace=wrap;html=1;fillColor=#dae8fc;strokeColor=#6c8ebf;" parent="1" vertex="1">
          <mxGeometry x="180" y="320" width="130" height="70" as="geometry" />
        </mxCell>
        
        <mxCell id="28" value="Xóa dự án khỏi nhóm" style="ellipse;whiteSpace=wrap;html=1;fillColor=#dae8fc;strokeColor=#6c8ebf;" parent="1" vertex="1">
          <mxGeometry x="180" y="440" width="130" height="70" as="geometry" />
        </mxCell>
        
        <!-- USE CASE QUẢN LÝ - CỘT 2 -->
        <mxCell id="6" value="Nhập thông tin dự án" style="ellipse;whiteSpace=wrap;html=1;fillColor=#e1d5e7;strokeColor=#9673a6;" parent="1" vertex="1">
          <mxGeometry x="420" y="160" width="130" height="70" as="geometry" />
        </mxCell>
        
        <mxCell id="7" value="Tìm kiếm dự án có sẵn" style="ellipse;whiteSpace=wrap;html=1;fillColor=#e1d5e7;strokeColor=#9673a6;" parent="1" vertex="1">
          <mxGeometry x="420" y="280" width="130" height="70" as="geometry" />
        </mxCell>
        
        <mxCell id="29" value="Xác nhận quyền sở hữu" style="ellipse;whiteSpace=wrap;html=1;fillColor=#e1d5e7;strokeColor=#9673a6;" parent="1" vertex="1">
          <mxGeometry x="420" y="400" width="130" height="70" as="geometry" />
        </mxCell>
        
        <mxCell id="9" value="Thông báo kết quả" style="ellipse;whiteSpace=wrap;html=1;fillColor=#fff2cc;strokeColor=#d6b656;" parent="1" vertex="1">
          <mxGeometry x="420" y="520" width="130" height="70" as="geometry" />
        </mxCell>
        
        <!-- USE CASE HỖ TRỢ - CỘT 3 -->
        <mxCell id="8" value="Kiểm tra quyền thành viên" style="ellipse;whiteSpace=wrap;html=1;fillColor=#f8cecc;strokeColor=#b85450;" parent="1" vertex="1">
          <mxGeometry x="680" y="180" width="130" height="70" as="geometry" />
        </mxCell>
        
        <mxCell id="24" value="Xác thực dự án" style="ellipse;whiteSpace=wrap;html=1;fillColor=#f8cecc;strokeColor=#b85450;" parent="1" vertex="1">
          <mxGeometry x="680" y="280" width="130" height="70" as="geometry" />
        </mxCell>
        
        <mxCell id="30" value="Cập nhật danh sách nhóm" style="ellipse;whiteSpace=wrap;html=1;fillColor=#f8cecc;strokeColor=#b85450;" parent="1" vertex="1">
          <mxGeometry x="680" y="380" width="130" height="70" as="geometry" />
        </mxCell>
        
        <mxCell id="25" value="Gửi email thông báo" style="ellipse;whiteSpace=wrap;html=1;fillColor=#fff2cc;strokeColor=#d6b656;" parent="1" vertex="1">
          <mxGeometry x="680" y="480" width="130" height="70" as="geometry" />
        </mxCell>
        
        <!-- KẾT NỐI ACTOR → USE CASE CHÍNH -->
        <mxCell id="10" value="" style="endArrow=none;html=1;rounded=0;" parent="1" source="2" target="4" edge="1">
          <mxGeometry width="50" height="50" relative="1" as="geometry">
            <mxPoint x="80" y="340" as="sourcePoint" />
            <mxPoint x="180" y="235" as="targetPoint" />
          </mxGeometry>
        </mxCell>
        
        <mxCell id="11" value="" style="endArrow=none;html=1;rounded=0;" parent="1" source="2" target="5" edge="1">
          <mxGeometry width="50" height="50" relative="1" as="geometry">
            <mxPoint x="80" y="340" as="sourcePoint" />
            <mxPoint x="180" y="355" as="targetPoint" />
          </mxGeometry>
        </mxCell>
        
        <mxCell id="19" value="" style="endArrow=none;html=1;rounded=0;" parent="1" source="18" target="4" edge="1">
          <mxGeometry width="50" height="50" relative="1" as="geometry">
            <mxPoint x="80" y="470" as="sourcePoint" />
            <mxPoint x="180" y="235" as="targetPoint" />
          </mxGeometry>
        </mxCell>
        
        <mxCell id="20" value="" style="endArrow=none;html=1;rounded=0;" parent="1" source="18" target="28" edge="1">
          <mxGeometry width="50" height="50" relative="1" as="geometry">
            <mxPoint x="80" y="470" as="sourcePoint" />
            <mxPoint x="180" y="475" as="targetPoint" />
          </mxGeometry>
        </mxCell>
        
        <!-- INCLUDE RELATIONSHIPS -->
        <mxCell id="12" value="include" style="endArrow=open;endSize=12;dashed=1;html=1;rounded=0;labelPosition=center;verticalLabelPosition=middle;align=center;verticalAlign=middle;" parent="1" source="4" target="6" edge="1">
          <mxGeometry x="0.1" y="10" width="160" height="100" relative="1" as="geometry">
            <mxPoint x="310" y="235" as="sourcePoint" />
            <mxPoint x="420" y="195" as="targetPoint" />
            <mxPoint as="offset" />
          </mxGeometry>
        </mxCell>
        
        <mxCell id="13" value="include" style="endArrow=open;endSize=12;dashed=1;html=1;rounded=0;labelPosition=center;verticalLabelPosition=middle;align=center;verticalAlign=middle;" parent="1" source="5" target="7" edge="1">
          <mxGeometry x="0.1" y="10" width="160" height="100" relative="1" as="geometry">
            <mxPoint x="310" y="355" as="sourcePoint" />
            <mxPoint x="420" y="315" as="targetPoint" />
            <mxPoint as="offset" />
          </mxGeometry>
        </mxCell>
        
        <mxCell id="14" value="include" style="endArrow=open;endSize=12;dashed=1;html=1;rounded=0;labelPosition=center;verticalLabelPosition=middle;align=center;verticalAlign=middle;" parent="1" source="4" target="8" edge="1">
          <mxGeometry x="0.1" y="10" width="160" height="100" relative="1" as="geometry">
            <mxPoint x="310" y="235" as="sourcePoint" />
            <mxPoint x="680" y="215" as="targetPoint" />
            <mxPoint as="offset" />
          </mxGeometry>
        </mxCell>
        
        <mxCell id="15" value="include" style="endArrow=open;endSize=12;dashed=1;html=1;rounded=0;labelPosition=center;verticalLabelPosition=middle;align=center;verticalAlign=middle;" parent="1" source="5" target="8" edge="1">
          <mxGeometry x="0.1" y="10" width="160" height="100" relative="1" as="geometry">
            <mxPoint x="310" y="355" as="sourcePoint" />
            <mxPoint x="680" y="215" as="targetPoint" />
            <mxPoint as="offset" />
          </mxGeometry>
        </mxCell>
        
        <mxCell id="26" value="include" style="endArrow=open;endSize=12;dashed=1;html=1;rounded=0;labelPosition=center;verticalLabelPosition=middle;align=center;verticalAlign=middle;" parent="1" source="6" target="24" edge="1">
          <mxGeometry x="0.1" y="10" width="160" height="100" relative="1" as="geometry">
            <mxPoint x="550" y="195" as="sourcePoint" />
            <mxPoint x="680" y="315" as="targetPoint" />
            <mxPoint as="offset" />
          </mxGeometry>
        </mxCell>
        
        <mxCell id="27" value="include" style="endArrow=open;endSize=12;dashed=1;html=1;rounded=0;labelPosition=center;verticalLabelPosition=middle;align=center;verticalAlign=middle;" parent="1" source="7" target="24" edge="1">
          <mxGeometry x="0.1" y="10" width="160" height="100" relative="1" as="geometry">
            <mxPoint x="550" y="315" as="sourcePoint" />
            <mxPoint x="680" y="315" as="targetPoint" />
            <mxPoint as="offset" />
          </mxGeometry>
        </mxCell>
        
        <mxCell id="31" value="include" style="endArrow=open;endSize=12;dashed=1;html=1;rounded=0;labelPosition=center;verticalLabelPosition=middle;align=center;verticalAlign=middle;" parent="1" source="28" target="29" edge="1">
          <mxGeometry x="0.1" y="10" width="160" height="100" relative="1" as="geometry">
            <mxPoint x="310" y="475" as="sourcePoint" />
            <mxPoint x="420" y="435" as="targetPoint" />
            <mxPoint as="offset" />
          </mxGeometry>
        </mxCell>
        
        <mxCell id="32" value="include" style="endArrow=open;endSize=12;dashed=1;html=1;rounded=0;labelPosition=center;verticalLabelPosition=middle;align=center;verticalAlign=middle;" parent="1" source="29" target="30" edge="1">
          <mxGeometry x="0.1" y="10" width="160" height="100" relative="1" as="geometry">
            <mxPoint x="550" y="435" as="sourcePoint" />
            <mxPoint x="680" y="415" as="targetPoint" />
            <mxPoint as="offset" />
          </mxGeometry>
        </mxCell>
        
        <!-- EXTEND RELATIONSHIPS -->
        <mxCell id="16" value="extend" style="endArrow=open;endSize=12;dashed=1;html=1;rounded=0;labelPosition=center;verticalLabelPosition=middle;align=center;verticalAlign=middle;" parent="1" source="9" target="4" edge="1">
          <mxGeometry x="-0.1" y="-10" width="160" height="100" relative="1" as="geometry">
            <mxPoint x="420" y="555" as="sourcePoint" />
            <mxPoint x="310" y="235" as="targetPoint" />
            <mxPoint as="offset" />
          </mxGeometry>
        </mxCell>
        
        <mxCell id="17" value="extend" style="endArrow=open;endSize=12;dashed=1;html=1;rounded=0;labelPosition=center;verticalLabelPosition=middle;align=center;verticalAlign=middle;" parent="1" source="9" target="5" edge="1">
          <mxGeometry x="-0.1" y="-10" width="160" height="100" relative="1" as="geometry">
            <mxPoint x="420" y="555" as="sourcePoint" />
            <mxPoint x="310" y="355" as="targetPoint" />
            <mxPoint as="offset" />
          </mxGeometry>
        </mxCell>
        
        <mxCell id="33" value="extend" style="endArrow=open;endSize=12;dashed=1;html=1;rounded=0;labelPosition=center;verticalLabelPosition=middle;align=center;verticalAlign=middle;" parent="1" source="9" target="28" edge="1">
          <mxGeometry x="-0.1" y="-10" width="160" height="100" relative="1" as="geometry">
            <mxPoint x="420" y="555" as="sourcePoint" />
            <mxPoint x="310" y="475" as="targetPoint" />
            <mxPoint as="offset" />
          </mxGeometry>
        </mxCell>
        
        <mxCell id="21" value="extend" style="endArrow=open;endSize=12;dashed=1;html=1;rounded=0;labelPosition=center;verticalLabelPosition=middle;align=center;verticalAlign=middle;" parent="1" source="25" target="9" edge="1">
          <mxGeometry x="-0.1" y="-10" width="160" height="100" relative="1" as="geometry">
            <mxPoint x="680" y="515" as="sourcePoint" />
            <mxPoint x="550" y="555" as="targetPoint" />
            <mxPoint as="offset" />
          </mxGeometry>
        </mxCell>
        
      </root>
    </mxGraphModel>
  </diagram>
</mxfile>
